:SAMPLES-PER-SECOND 30
:FULLY-SPECIFIED
:DEGREES
1013
root  -42.379 37.9441 -1.32727 -143.216 -79.715 135.921
RightUpLeg  22.231 -0.695428 -14.8416
RightLeg  21.9339 0.522737 0.141687
RightFoot  -22.5308 1.46685 16.7242
RightToes  -4.65663e-010 0 -3.6325e-017
Spine  8.40432 3.39558 2.40905
Spine1  7.05418 7.55794 -16.1106
HEad  -31.7043 0.0389676 -8.17125
LeftShoulder1  -0.681908 5.17199 -34.701
LeftArm  -4.15362 19.5626 -32.6187
LeftForeArm  37.1341 -4.48915 -8.10243
LeftHand  -0.144244 11.1731 -1.58418
RightShoulder  -1.0713 -6.33473 31.2776
RightArm  15.0038 0.662408 52.5076
RightForeArm  29.1822 1.49592 8.31031
RightHand  0.0491323 1.335 0.732298
LeftUpLeg  -18.5536 7.58092 -8.09681
LeftLeg  29.9655 3.67336 2.63843
LeftFoot  -3.8744 -0.419803 6.77935
LeftToes  8.74931e-010 -1.05764e-010 1.2659e-011
1014
root  -43.3016 38.2028 -1.114 -142.097 -79.4184 135.154
RightUpLeg  17.9363 -0.338906 -15.8947
RightLeg  30.6004 0.754366 0.244739
RightFoot  -15.8928 0.70571 17.9865
RightToes  -4.65663e-010 0 -3.6325e-017
Spine  8.2718 3.20381 1.60857
Spine1  6.45642 7.12404 -16.5221
HEad  -30.8748 1.10997 -7.83254
LeftShoulder1  -0.684913 5.19185 -34.3931
LeftArm  -4.69112 17.299 -33.6806
LeftForeArm  37.4857 -5.0958 -7.98483
LeftHand  -0.237249 11.0629 -3.45918
RightShoulder  -1.1245 -6.44462 31.6647
RightArm  14.2622 -1.64236 51.1787
RightForeArm  31.2176 0.466605 7.94154
RightHand  0.074713 0.964222 1.27189
LeftUpLeg  -16.6614 7.34073 -8.8302
LeftLeg  28.6534 4.09536 2.77172
LeftFoot  -4.93242 -0.338232 6.56662
LeftToes  8.74931e-010 -1.05764e-010 1.2659e-011
1015
root  -44.1996 38.6083 -0.902622 -142.818 -79.4779 136.2
RightUpLeg  11.9979 -0.221566 -16.2149
RightLeg  40.5947 0.775107 0.430033
RightFoot  -5.71499 -0.603489 11.0494
RightToes  -4.65663e-010 0 -3.6325e-017
Spine  8.08146 2.91985 0.396198
Spine1  5.67335 6.18853 -14.6403
HEad  -29.9955 1.82446 -7.72617
LeftShoulder1  -0.69805 5.19275 -35.1302
LeftArm  -4.54202 13.9878 -34.3388
LeftForeArm  35.8418 -5.89122 -8.23452
LeftHand  -0.283645 11.2826 -4.25319
RightShoulder  -0.977519 -6.13873 30.5403
RightArm  13.8474 -4.3939 50.0517
RightForeArm  32.7425 2.16155 7.52909
RightHand  0.129972 1.17448 2.18775
LeftUpLeg  -14.0046 7.17614 -8.9952
LeftLeg  25.8671 4.2833 2.61175
LeftFoot  -5.29262 -0.290549 6.09588
LeftToes  8.74931e-010 -1.05764e-010 1.2659e-011
1016
root  -44.9337 38.8974 -0.736574 -143.813 -79.1638 137.279
RightUpLeg  6.34887 0.649513 -16.1872
RightLeg  48.6045 1.13464 1.06619
RightFoot  -1.16263 -0.761053 8.2847
RightToes  -4.65663e-010 0 -3.6325e-017
Spine  8.14271 2.64425 -1.13695
Spine1  5.72392 5.35227 -13.6622
HEad  -28.9372 2.98415 -7.2377
LeftShoulder1  -0.627162 5.04919 -34.4159
LeftArm  -3.89045 10.1438 -36.1862
LeftForeArm  34.7431 -6.44227 -8.73796
LeftHand  -0.206848 11.6866 -2.45863
RightShoulder  -1.00373 -6.21217 30.4973
RightArm  15.5901 -5.20746 48.174
RightForeArm  29.5315 4.61422 7.98706
RightHand  0.13354 1.46452 2.15222
LeftUpLeg  -11.5837 7.78438 -9.23491
LeftLeg  23.4213 4.07706 2.25918
LeftFoot  -5.70603 -0.238998 5.55284
LeftToes  8.74931e-010 -1.05764e-010 1.2659e-011
1017
root  -45.672 39.1815 -0.614431 -145.44 -79.2152 138.437
RightUpLeg  2.01238 1.43863 -15.6631
RightLeg  53.9664 1.99017 2.5416
RightFoot  -2.9126 -0.696187 9.15054
RightToes  -4.65663e-010 0 -3.6325e-017
Spine  8.21585 2.20822 -2.98802
Spine1  6.32636 4.17953 -11.5575
HEad  -28.0219 4.36562 -6.66946
LeftShoulder1  -0.601261 4.98775 -34.3529
LeftArm  -2.81252 5.91147 -37.2826
LeftForeArm  33.5015 -8.02041 -8.97642
LeftHand  -0.0909786 9.24337 -1.20138
RightShoulder  -0.906778 -6.00136 29.7036
RightArm  17.2166 -5.64236 47.1564
RightForeArm  25.1274 7.59798 8.17906
RightHand  0.0753308 1.69392 1.08287
LeftUpLeg  -8.41879 8.45624 -8.88517
LeftLeg  20.8022 3.68882 1.47798
LeftFoot  -6.06835 -0.202401 5.18567
LeftToes  8.74931e-010 -1.05764e-010 1.2659e-011
1018
root  -46.41 39.3998 -0.522168 -146.645 -80.1632 139.049
RightUpLeg  -1.76394 1.255 -14.449
RightLeg  57.0593 2.20546 3.22175
RightFoot  -3.02529 -0.681959 9.07698
RightToes  -4.65663e-010 0 -3.6325e-017
Spine  8.56915 1.50293 -4.69047
Spine1  6.5729 2.5389 -8.73538
HEad  -26.5418 5.07529 -6.19072
LeftShoulder1  -0.542224 4.84765 -34.1795
LeftArm  -2.09784 1.09934 -38.3855
LeftForeArm  32.0704 -8.92705 -8.9905
LeftHand  -0.0689909 9.4619 -0.482506
RightShoulder  -0.795315 -5.75963 28.6443
RightArm  19.4862 -5.87886 46.5507
RightForeArm  22.2731 10.7982 7.73593
RightHand  0.12629 1.3681 2.03576
LeftUpLeg  -5.42545 7.76241 -7.81332
LeftLeg  18.9427 3.76309 0.425527
LeftFoot  -6.65145 -0.165536 5.02199
LeftToes  8.74931e-010 -1.05764e-010 1.2659e-011
